<svg xmlns="http://www.w3.org/2000/svg" viewBox="0 0 1000 1200" width="1000" height="1200">
  <defs>
    <linearGradient id="sky2" x1="0" y1="0" x2="0" y2="1">
      <stop offset="0%" stop-color="#a9c6dd"/>
      <stop offset="55%" stop-color="#d9e6ee"/>
      <stop offset="100%" stop-color="#f1ede2"/>
    </linearGradient>
    <linearGradient id="floor" x1="0" y1="0" x2="0" y2="1">
      <stop offset="0%" stop-color="#cbb894"/>
      <stop offset="100%" stop-color="#a68f68"/>
    </linearGradient>
  </defs>
  <rect width="1000" height="1200" fill="url(#sky2)"/>
  <g opacity="0.55">
    <rect x="40" y="520" width="120" height="340" fill="#9fb2bf"/>
    <rect x="180" y="440" width="150" height="420" fill="#b3c2cc"/>
    <rect x="350" y="360" width="170" height="500" fill="#9fb2bf"/>
    <rect x="540" y="480" width="140" height="380" fill="#b3c2cc"/>
    <rect x="700" y="400" width="160" height="460" fill="#9fb2bf"/>
    <rect x="860" y="500" width="120" height="360" fill="#b3c2cc"/>
  </g>
  <rect x="0" y="860" width="1000" height="60" fill="#8b8378" opacity="0.7"/>
  <rect x="0" y="900" width="1000" height="300" fill="url(#floor)"/>
  <rect x="60" y="920" width="340" height="14" rx="7" fill="#3a2f22" opacity="0.85"/>
  <rect x="60" y="934" width="14" height="220" fill="#3a2f22" opacity="0.85"/>
  <rect x="386" y="934" width="14" height="220" fill="#3a2f22" opacity="0.85"/>
  <ellipse cx="230" cy="1080" rx="150" ry="18" fill="#000000" opacity="0.12"/>
  <rect x="150" y="960" width="160" height="90" rx="6" fill="#d9b578" opacity="0.9"/>
  <circle cx="230" cy="960" r="40" fill="#f6f2ea" opacity="0.9"/>
</svg>